<svg xmlns="http://www.w3.org/2000/svg" width="933.333" height="933.333" version="1.0" viewBox="0 0 700 700"><path d="M345.5 33.9c-.6.5-3 2-5.5 3.3-2.5 1.4-15.1 8.6-28 16s-25.5 14.6-28 16c-2.5 1.4-12.1 6.9-21.5 12.3-9.3 5.4-23.5 13.4-31.5 18-13.5 7.6-45.6 26-88.5 50.5-9.9 5.7-18.9 10.8-20 11.4-1.1.6-14.5 8.3-29.8 17L65 194.3v324.3l11.8 6.7c6.4 3.7 12.8 7.4 14.2 8.2 6.6 3.9 27.2 15.5 27.6 15.5.2 0 .4-72.8.4-161.8l.1-161.7 56.1-32c30.8-17.6 58.2-33.2 60.7-34.6 2.5-1.4 15.9-9 29.6-16.9 13.8-7.9 26.5-15.1 28.3-16.2 1.7-1 4.9-2.7 6.9-3.9 2-1.1 13-7.4 24.4-14 11.4-6.6 21.4-12.2 22.2-12.5.9-.3 4.6 1.2 8.4 3.4 3.7 2.1 21.2 12.1 38.8 22.2 17.6 10.1 33.4 19.1 35 20 1.7.9 11.1 6.3 21 12s19.8 11.3 22 12.5c2.2 1.3 16.4 9.3 31.5 18 15.1 8.7 29.1 16.7 31 17.8 1.9 1 6.4 3.6 10 5.7 3.6 2.1 8.5 4.9 11 6.3 2.5 1.4 8.3 4.7 13 7.4l8.5 4.9v261.8L557 499.2c-11.3 6.5-21.8 12.5-23.5 13.3-1.6.9-4.3 2.4-6 3.4-3.6 2.2-44.6 25.6-49.5 28.3-1.9 1.1-4.8 2.7-6.5 3.7-5.2 3.1-45.3 26-49.3 28.2-2 1.1-5.3 3-7.2 4.1-29.6 17.3-66.5 37.8-67.5 37.4-.7-.2-26.6-14.9-57.6-32.7-31-17.7-57.7-33-59.4-33.9l-3-1.7-.3-130.4-.2-130.5 60.7-34.7 60.7-34.7 4.1 2.4c2.2 1.3 6.7 3.9 10 5.7 3.3 1.7 6.5 3.5 7 3.9.6.4 2.6 1.7 4.5 2.7 1.9 1.1 17.9 10.2 35.5 20.3 17.6 10.1 34 19.4 36.5 20.8 2.5 1.3 6.1 3.4 8 4.6 4.5 2.7 10.9 6.3 13.8 7.8l2.2 1.1v136.2l-6.2 3.5c-3.4 1.9-8.7 4.9-11.8 6.6-3 1.8-15.6 9-28 16.1-12.4 7.1-23.2 13.2-24 13.6-.8.4-12.7 7.2-26.5 15.1l-25 14.4-6.7-3.6-6.8-3.7.3-67.9.2-67.8 33.3-19c18.3-10.4 33-19.3 32.7-19.8-.3-.4-6-3.9-12.8-7.8-6.7-3.8-18.3-10.4-25.7-14.7-7.4-4.2-13.9-7.8-14.5-7.8-.5 0-9.1 4.6-19 10.3-9.9 5.7-19.8 11.3-22 12.6-2.2 1.2-8.9 5.1-15 8.6l-11 6.3-.3 99.1-.2 99 29.6 16.9c16.3 9.4 31.4 18 33.6 19.3l4 2.3 11.1-6.3c6.2-3.5 11.9-6.8 12.9-7.3.9-.6 2.9-1.7 4.5-2.6 1.5-.9 25.1-14.3 52.3-29.9 27.2-15.5 51.1-29.2 53-30.2 1.9-1.1 12.2-7 22.8-13l19.2-11.1V257.2l-7.7-4.5c-4.3-2.5-10-5.7-12.8-7.2-2.7-1.5-5.4-3.1-6-3.5-.5-.4-3.5-2.1-6.5-3.7-3-1.7-11.6-6.6-19-10.8-7.4-4.3-16-9.1-19-10.8-3-1.6-6.7-3.8-8.2-4.9-1.4-1-2.9-1.8-3.2-1.8-.4 0-2.3-1-4.4-2.3-2-1.3-6.2-3.7-9.2-5.4-3-1.6-14.5-8.2-25.5-14.5-11-6.3-22-12.6-24.5-14-2.5-1.4-10.2-5.8-17.2-9.7l-12.7-7.2-13.3 7.7c-7.3 4.2-15.3 8.8-17.8 10.2-2.5 1.4-31.3 17.8-64 36.5-32.7 18.8-60.8 34.7-62.5 35.5-1.6.8-3.7 2-4.5 2.7-.8.7-4 2.6-7 4.3l-5.5 3-.2 161.8-.2 161.9 48.7 27.8c26.8 15.3 49.8 28.4 51.2 29.2 18.2 10.7 74.6 42.5 75.3 42.5.9 0 8.1-3.8 14.7-7.8 1.9-1.2 5.2-3.1 7.2-4.2s15.8-8.9 30.5-17.3c14.7-8.5 28.8-16.5 31.3-17.9 2.5-1.4 20-11.4 39-22.3 19-10.8 36.3-20.7 38.5-22 2.2-1.2 29-16.5 59.5-34s57.2-32.6 59.3-33.7l3.7-2V194.4l-19.2-10.9c-10.5-6.1-21.2-12.2-23.7-13.6-21.5-12.2-160.3-91.6-162.6-93-1.6-1-3.7-2.2-4.5-2.6-.8-.3-17.5-9.8-37.1-21S348.7 33 347.9 33c-.8 0-1.9.4-2.4.9z"/></svg>