<?xml version="1.0" standalone="no"?>
<!DOCTYPE svg PUBLIC "-//W3C//DTD SVG 20010904//EN"
 "http://www.w3.org/TR/2001/REC-SVG-20010904/DTD/svg10.dtd">
<svg version="1.0" xmlns="http://www.w3.org/2000/svg"
 width="700.000000pt" height="700.000000pt" viewBox="0 0 700.000000 700.000000"
 preserveAspectRatio="xMidYMid meet">
<metadata>
Created by potrace 1.11, written by Peter Selinger 2001-2013
</metadata>
<g transform="translate(0.000000,700.000000) scale(0.100000,-0.100000)"
fill="#000000" stroke="none">
<path d="M3455 6661 c-6 -5 -30 -20 -55 -33 -25 -14 -151 -86 -280 -160 -129
-74 -255 -146 -280 -160 -25 -14 -121 -69 -215 -123 -93 -54 -235 -134 -315
-180 -135 -76 -456 -260 -885 -505 -99 -57 -189 -108 -200 -114 -11 -6 -145
-83 -298 -170 l-277 -159 0 -1621 0 -1622 118 -67 c64 -37 128 -74 142 -82 66
-39 272 -155 276 -155 2 0 4 728 4 1618 l1 1617 561 320 c308 176 582 332 607
346 25 14 159 90 296 169 138 79 265 151 283 162 17 10 49 27 69 39 20 11 130
74 244 140 114 66 214 122 222 125 9 3 46 -12 84 -34 37 -21 212 -121 388
-222 176 -101 334 -191 350 -200 17 -9 111 -63 210 -120 99 -57 198 -113 220
-125 22 -13 164 -93 315 -180 151 -87 291 -167 310 -178 19 -10 64 -36 100
-57 36 -21 85 -49 110 -63 25 -14 83 -47 130 -74 l85 -49 0 -1309 0 -1309
-205 -118 c-113 -65 -218 -125 -235 -133 -16 -9 -43 -24 -60 -34 -36 -22 -446
-256 -495 -283 -19 -11 -48 -27 -65 -37 -52 -31 -453 -260 -493 -282 -20 -11
-53 -30 -72 -41 -296 -173 -665 -378 -675 -374 -7 2 -266 149 -576 327 -310
177 -577 330 -594 339 l-30 17 -3 1304 -2 1305 607 347 607 347 41 -24 c22
-13 67 -39 100 -57 33 -17 65 -35 70 -39 6 -4 26 -17 45 -27 19 -11 179 -102
355 -203 176 -101 340 -194 365 -208 25 -13 61 -34 80 -46 45 -27 109 -63 138
-78 l22 -11 0 -681 0 -681 -62 -35 c-34 -19 -87 -49 -118 -66 -30 -18 -156
-90 -280 -161 -124 -71 -232 -132 -240 -136 -8 -4 -127 -72 -265 -151 l-250
-144 -67 36 -68 37 3 679 2 678 333 190 c183 104 330 193 327 198 -3 4 -60 39
-128 78 -67 38 -183 104 -257 147 -74 42 -139 78 -145 78 -5 0 -91 -46 -190
-103 -99 -57 -198 -113 -220 -126 -22 -12 -89 -51 -150 -86 l-110 -63 -3 -991
-2 -990 296 -169 c163 -94 314 -180 336 -193 l40 -23 111 63 c62 35 119 68
129 73 9 6 29 17 45 26 15 9 251 143 523 299 272 155 511 292 530 302 19 11
122 70 228 130 l192 111 0 992 0 993 -77 45 c-43 25 -100 57 -128 72 -27 15
-54 31 -60 35 -5 4 -35 21 -65 37 -30 17 -116 66 -190 108 -74 43 -160 91
-190 108 -30 16 -67 38 -82 49 -14 10 -29 18 -32 18 -4 0 -23 10 -44 23 -20
13 -62 37 -92 54 -30 16 -145 82 -255 145 -110 63 -220 126 -245 140 -25 14
-102 58 -172 97 l-127 72 -133 -77 c-73 -42 -153 -88 -178 -102 -25 -14 -313
-178 -640 -365 -327 -188 -608 -347 -625 -355 -16 -8 -37 -20 -45 -27 -8 -7
-40 -26 -70 -43 l-55 -30 -2 -1618 -2 -1619 487 -278 c268 -153 498 -284 512
-292 182 -107 746 -425 753 -425 9 0 81 38 147 78 19 12 52 31 72 42 20 11
158 89 305 173 147 85 288 165 313 179 25 14 200 114 390 223 190 108 363 207
385 220 22 12 290 165 595 340 305 175 572 326 593 337 l37 20 0 1622 0 1622
-192 109 c-105 61 -212 122 -237 136 -215 122 -1603 916 -1626 930 -16 10 -37
22 -45 26 -8 3 -175 98 -371 210 -196 112 -362 203 -370 203 -8 0 -19 -4 -24
-9z"/>
</g>
</svg>
